<?xml version="1.0" encoding="UTF-8"?>
<svg id="Capa_2" data-name="Capa 2" xmlns="http://www.w3.org/2000/svg" xmlns:xlink="http://www.w3.org/1999/xlink" viewBox="0 0 96.63 117.54">
  <defs>
    <style>
      .cls-1 {
        fill: #fff;
      }

      .cls-2 {
        fill: url(#Degradado_sin_nombre_3);
      }

      .cls-3 {
        fill: #773a0c;
      }
    </style>
    <linearGradient id="Degradado_sin_nombre_3" data-name="Degradado sin nombre 3" x1="54.74" y1="92.82" x2="42.3" y2="26.3" gradientUnits="userSpaceOnUse">
      <stop offset="0" stop-color="#fcbc09"/>
      <stop offset="1" stop-color="#fa8481"/>
    </linearGradient>
  </defs>
  <g id="Capa_1-2" data-name="Capa 1">
    <g>
      <path class="cls-3" d="M56.88,36.77c.1.45.22.45.37.02.8-2.4,1.22-5.11,1.7-7.98.5-3.02.86-5.07,1.06-6.16.64-3.42,1.06-5.46,1.27-6.09,2.05-6.34,7.57-10.82,14.44-9.05,6.06,1.55,7.45,9.49,8.58,14.55.61,2.73.97,5.45,1.08,8.14.19,4.52.23,7.53.1,9.04-.16,2.03-.79,3.94-1.9,5.73-.11.18-.06.3.13.36,1.6.5,2.56,1.48,2.87,2.95,1.58,7.33,2.61,12.43,3.1,15.3.06.34.08.66.05.95-.72,7.67-2.67,15.6-6.64,22.06-2.45,3.97-6.46,6.95-11.26,7.4-3.33.31-5.45-1.22-7.15-3.99-1.32-2.14-2.37-4.71-3.16-7.71-.45-1.69-1.18-4.48-2.21-8.36-.27-1.01-1.06-3.17-2.45-2.63-.92.36-1.46,1.03-1.62,2-.16.97-.31,2.67-.47,5.08-.11,1.65-.42,3.88-.94,6.69-1.78,9.66-6.12,18.02-15.68,21.74-5.31,2.07-12.09,2.92-17.18-.1-3.29-1.96-5.53-4.72-6.7-8.29-1.09-3.33-2.45-7.78-4.09-13.33-.45-1.52-.79-3.11-1.04-4.77-.32-2.2-.12-4.23-.19-6.64-.13-4.75,2.25-10.61,7.09-12.13.12-.04.17-.12.14-.24-.29-1.21-.63-2.45-1.03-3.71-.9-2.82-1.38-5.5-1.37-8.19.02-3.02.03-4.82.04-5.38.09-4.32,1.28-8.42,3.56-12.3,3.44-5.84,8.05-10.28,14.2-13.1,1.39-.64,3.23-1.31,5.51-2.03,3.1-.97,6.05-1.37,8.86-1.21,4.46.25,7.89,3.84,8.53,8.07.79,5.24,1.59,9.69,2.41,13.35ZM41.83,51.09c-.93,5.99-3.79,11.51-8.92,14.8-3.16,2.03-7.57,2.65-10.94.96-1.74-.88-2.61-2.11-3.25-3.86-.24-.66-.7-.98-1.4-.82-1.89.45-3.45,1.44-4.68,2.96-3.42,4.23-3.39,10.57-1.29,15.37,4.79,10.97,17.42,10.57,26.31,5.76,11.11-6.01,13.39-19.55,14.05-31.07.05-.86.23-1.55.55-2.08.39-.65,1.38-1.42,2.16-.92,1.18.75,1.82,2.98,2.14,4.36,1.33,5.73,2.3,11,5.54,15.43,2.35,3.22,5.93,3.4,9.42,2.18,5.11-1.79,8.23-5.95,10.45-11.01,1.94-4.41,3.24-9.11,3.9-14.09.12-.92.08-1.53-.11-1.82-.7-1.02-2.39-1.73-3.5-.97-.22.15-.48.6-.79,1.35-1.5,3.74-2.87,6.69-7.21,7.34-1.44.22-2.61-.15-3.53-1.1-1.1-1.14-2.17-2.56-3.21-4.27-1.1-1.81-2.6-3.2-4.5-4.19-.41-.47-.39-.97.06-1.49,1.18-1.37,2.01-2.76,2.5-4.15,1.57-4.45,2.38-6.74,2.44-6.89.98-2.61,2.35-5,5.43-4.91,1.06.03,2.12.6,3.21.38,1.15-.24,2.09-.78,2.81-1.61,2.96-3.43,3.38-8.95,1.76-13.04-1.46-3.68-4.3-6.17-8.31-5.84-6.27.52-9.79,5.15-11.12,10.92-1.31,5.66-1.81,11-3.02,16.08-.5,2.12-1.4,5.38-3.5,6.31-2.01.89-2.47-1.64-2.38-3.01.41-5.7.66-9.81.75-12.3.09-2.45-.52-5.64-2.22-7.4-2.7-2.8-6.86-2.8-10.54-2.09-11.13,2.15-20.95,8.94-24.8,19.94-1.63,4.65-1.95,9.48-.98,14.48.5,2.55,1.3,4.57,2.43,6.04,2.71,3.54,6.27,4.85,10.69,3.92.75-.16,1.58-.54,2.28-.8,4.69-1.71,8.97-7.92,6.49-12.81-.06-.11-.16-.18-.28-.18-.05,0-.28,0-.7-.02-2.52-.07-3.68-3.01-3.81-5.23-.44-7.44,5.07-12.04,12.12-12.14.06,0,.12.05.12.11,0,0,0,.01,0,.02l-2.63,21.39ZM74.51,32.8c.03.09.45.13,1.26.1.71-.03,1.1,1.27,1.42,1.77.25.38.31.35.18-.09-.42-1.45,0-2.39,1.26-2.82.05-.02.07-.05.05-.1-.01-.05-.05-.07-.09-.06-1.31.26-2.15-.33-2.52-1.79-.11-.45-.18-.44-.2.02-.03.6.3,1.91-.33,2.24-.72.39-1.07.63-1.04.73ZM75.07,45.06s.04-.01.04-.02c.02-.03.03-.05.03-.08-.43-2.46-1.1-5.23,1.39-6.71.55-.33,1.22-.65,2.01-.98.02,0,.03-.03.04-.06,0-.02,0-.05-.02-.09,0-.02-.03-.03-.05-.03-2.28.15-4.3.47-5.55-1.97-.44-.85-.87-1.85-1.3-3.01-.05-.14-.1-.21-.14-.2-.04,0-.05.09-.02.24.21,1.21.34,2.3.39,3.25.14,2.74-1.75,3.48-3.8,4.49-.02,0-.03.03-.03.05,0,.04,0,.07.03.09.03.02.05.03.07.03.84-.11,1.58-.17,2.23-.17,2.9.02,3.72,2.75,4.58,5.09,0,.02.03.04.06.05,0,0,.02,0,.04,0ZM80.19,47.43c-1.1.32-2.64-.35-3.63-.32-3.27.09-4.48,2.96-5.46,5.64-.12.34-.03.61.29.79,4.32,2.52,7.95-2.7,9.26-6.02.02-.06,0-.13-.07-.16-.01,0-.03,0-.04,0-.07,0-.19.03-.34.07Z"/>
      <path class="cls-1" d="M80.17,14.57c.37,1.03,1.33,4.42.39,5.06-.25.17-.59.1-.75-.15-.06-.08-.09-.18-.09-.29-.05-1.46-.31-2.85-.78-4.18-.47-1.33-1.16-2.57-2.05-3.72-.18-.24-.14-.58.1-.76.08-.06.18-.1.28-.11,1.13-.1,2.54,3.12,2.91,4.15Z"/>
      <path class="cls-1" d="M78.69,31.67s0,.08-.05.1c-1.26.44-1.68,1.38-1.26,2.82.13.44.07.47-.18.09-.32-.5-.7-1.8-1.42-1.77-.82.03-1.24,0-1.26-.1-.03-.1.32-.34,1.04-.73.63-.34.3-1.65.33-2.24.02-.46.09-.46.2-.02.37,1.46,1.21,2.06,2.52,1.79.05,0,.08,0,.09.06Z"/>
      <path class="cls-1" d="M71.53,31.94s.08.05.14.2c.43,1.15.87,2.15,1.3,3.01,1.25,2.44,3.26,2.12,5.55,1.97.02,0,.04,0,.05.03.02.04.03.07.02.09-.01.03-.03.05-.04.06-.79.32-1.45.65-2.01.98-2.5,1.48-1.82,4.25-1.39,6.71,0,.02,0,.05-.03.08,0,0-.02.01-.04.02-.02,0-.04,0-.04,0-.03,0-.06-.03-.06-.05-.86-2.34-1.68-5.07-4.58-5.09-.64,0-1.39.05-2.23.17-.02,0-.04,0-.07-.03-.02-.01-.03-.04-.03-.09,0-.02,0-.04.03-.05,2.05-1.02,3.95-1.75,3.8-4.49-.05-.96-.18-2.04-.39-3.25-.03-.15-.02-.23.02-.24Z"/>
      <path class="cls-2" d="M85.76,47.24c-.7-1.02-2.39-1.73-3.5-.97-.22.15-.48.6-.79,1.35-1.5,3.74-2.87,6.69-7.21,7.34-1.44.22-2.61-.15-3.53-1.1-1.1-1.14-2.17-2.56-3.21-4.27-1.1-1.81-2.6-3.2-4.5-4.19-.41-.47-.39-.97.06-1.49,1.18-1.37,2.01-2.76,2.5-4.15,1.57-4.45,2.38-6.74,2.44-6.89.98-2.61,2.35-5,5.43-4.91,1.06.03,2.12.6,3.21.38,1.15-.24,2.09-.78,2.81-1.61,2.96-3.43,3.38-8.95,1.76-13.04-1.46-3.68-4.3-6.17-8.31-5.84-6.27.52-9.79,5.15-11.12,10.92-1.31,5.66-1.81,11-3.02,16.08-.5,2.12-1.4,5.38-3.5,6.31-2.01.89-2.47-1.64-2.38-3.01.41-5.7.66-9.81.75-12.3.09-2.45-.52-5.64-2.22-7.4-2.7-2.8-6.86-2.8-10.54-2.09-11.13,2.15-20.95,8.94-24.8,19.94-1.63,4.65-1.95,9.48-.98,14.48.5,2.55,1.3,4.57,2.43,6.04,2.71,3.54,6.27,4.85,10.69,3.92.75-.16,1.58-.54,2.28-.8,4.69-1.71,8.97-7.92,6.49-12.81-.06-.11-.16-.18-.28-.18-.05,0-.28,0-.7-.02-2.52-.07-3.68-3.01-3.81-5.23-.44-7.44,5.07-12.04,12.12-12.14,0,0,.01,0,.02,0,.06,0,.11.07.1.13l-2.63,21.39c-.93,5.99-3.79,11.51-8.92,14.8-3.16,2.03-7.57,2.65-10.94.96-1.74-.88-2.61-2.11-3.25-3.86-.24-.66-.7-.98-1.4-.82-1.89.45-3.45,1.44-4.68,2.96-3.42,4.23-3.39,10.57-1.29,15.37,4.79,10.97,17.42,10.57,26.31,5.76,11.11-6.01,13.39-19.55,14.05-31.07.05-.86.23-1.55.55-2.08.39-.65,1.38-1.42,2.16-.92,1.18.75,1.82,2.98,2.14,4.36,1.33,5.73,2.3,11,5.54,15.43,2.35,3.22,5.93,3.4,9.42,2.18,5.11-1.79,8.23-5.95,10.45-11.01,1.94-4.41,3.24-9.11,3.9-14.09.12-.92.08-1.53-.11-1.82ZM77.25,10.42c1.13-.1,2.54,3.12,2.91,4.15.37,1.03,1.33,4.42.39,5.06-.08.06-.18.09-.29.09-.3,0-.55-.23-.56-.53-.05-1.46-.31-2.85-.78-4.18-.47-1.33-1.16-2.57-2.05-3.72-.06-.08-.1-.18-.11-.28-.03-.3.19-.56.49-.59Z"/>
      <path class="cls-1" d="M80.19,47.43c.16-.05.27-.07.34-.07.07,0,.12.05.12.12,0,.01,0,.03,0,.04-1.31,3.32-4.95,8.54-9.26,6.02-.32-.18-.41-.45-.29-.79.98-2.68,2.19-5.55,5.46-5.64.99-.03,2.54.64,3.63.32Z"/>
      <path class="cls-1" d="M60.05,94.75c-.07-.09-.2-.1-.29-.03-.03.02-.05.05-.06.09-3.65,10.4-11.95,18.05-22.29,21.4-3.47,1.12-7.25,1.54-11.33,1.24-.81-.06-2.25-.32-4.32-.79-1.84-.42-3.24-.82-4.21-1.21-6.85-2.78-11.13-9.72-13.75-16.45C1.11,92.07-.15,84.97.01,77.7c.15-6.63,1.67-13.55,6.44-17.99.19-.18.27-.46.19-.71-4.35-14.27.99-29.84,11.23-40.26,8.95-9.11,23.08-14.21,34.63-6.43,1.11.75,2,1.7,2.68,2.82.07.12.22.15.33.09.04-.02.07-.06.09-.1,3.13-6.57,9.05-13.52,16.61-14.88,3.32-.6,6.43-.02,9.33,1.73,4.39,2.65,6.6,7.32,8.15,11.96,1.98,5.94,3.34,12.58,4.1,19.91.52,5.05.42,9.51-1.28,14.12-.25.68.61,3.37,1.22,6.13.12.57.59,2.36,1.41,5.37,3.52,13.06.8,27.9-8.5,38.11-2.22,2.44-4.74,4.24-7.57,5.42-3.15,1.31-6.28,1.23-9.37-.23-3.25-1.53-5.97-3.59-8.16-6.18-.15-.17-.65-.78-1.5-1.82ZM56.88,36.77c-.82-3.66-1.62-8.11-2.41-13.35-.64-4.24-4.07-7.82-8.53-8.07-2.81-.16-5.77.25-8.86,1.21-2.28.71-4.12,1.39-5.51,2.03-6.16,2.82-10.77,7.26-14.2,13.1-2.28,3.88-3.47,7.98-3.56,12.3-.01.57-.03,2.36-.04,5.38-.01,2.7.47,5.38,1.37,8.19.4,1.26.74,2.49,1.03,3.71.03.12-.02.2-.14.24-4.83,1.52-7.22,7.37-7.09,12.13.07,2.41-.13,4.44.19,6.64.25,1.66.59,3.25,1.04,4.77,1.63,5.55,3,10,4.09,13.33,1.17,3.57,3.4,6.33,6.7,8.29,5.1,3.02,11.87,2.17,17.18.1,9.56-3.72,13.91-12.08,15.68-21.74.52-2.81.83-5.04.94-6.69.16-2.41.32-4.1.47-5.08.16-.97.7-1.64,1.62-2,1.4-.55,2.19,1.62,2.45,2.63,1.03,3.88,1.77,6.67,2.21,8.36.79,3,1.84,5.57,3.16,7.71,1.71,2.77,3.82,4.3,7.15,3.99,4.81-.45,8.82-3.43,11.26-7.4,3.97-6.46,5.92-14.39,6.64-22.06.03-.29.01-.61-.05-.95-.49-2.86-1.52-7.96-3.1-15.3-.31-1.46-1.27-2.44-2.87-2.95-.2-.06-.24-.18-.13-.36,1.1-1.79,1.73-3.7,1.9-5.73.12-1.51.09-4.53-.1-9.04-.11-2.69-.47-5.4-1.08-8.14-1.13-5.06-2.52-13-8.58-14.55-6.87-1.76-12.39,2.71-14.44,9.05-.21.64-.63,2.67-1.27,6.09-.2,1.09-.56,3.14-1.06,6.16-.48,2.87-.9,5.58-1.7,7.98-.15.43-.27.43-.37-.02Z"/>
    </g>
  </g>
</svg>